<svg width="270" height="103" viewBox="0 0 270 103" fill="none" xmlns="http://www.w3.org/2000/svg">
<path d="M40.448 7.55195C46.1653 7.55195 50.2187 8.44795 52.608 10.2399C55.0827 11.9466 56.32 14.2933 56.32 17.2799C56.32 20.7786 54.656 23.3386 51.328 24.9599C48.0853 26.5813 43.0507 27.3919 36.224 27.3919C33.408 27.3919 30.208 27.3493 26.624 27.2639C23.04 27.0933 19.3707 26.8799 15.616 26.6239L16.896 24.1919C17.4933 27.1786 17.7493 30.848 17.664 35.2C17.5787 39.4666 17.152 43.5626 16.384 47.4879L15.104 45.5679C25.0027 46.2506 32.8107 47.4026 38.528 49.0239C44.2453 50.6453 48.2987 52.5653 50.688 54.784C53.1627 57.0026 54.4 59.4773 54.4 62.208C54.4 64.3413 53.6747 66.1333 52.224 67.584C50.7733 68.9493 48.5547 69.632 45.568 69.632C41.3013 69.632 36.352 68.6079 30.72 66.5599C25.1733 64.4266 19.4133 61.3973 13.44 57.472L16.256 57.216C17.024 59.4346 17.7493 62.4213 18.432 66.1759C19.2 69.8453 19.7973 73.7706 20.224 77.952C20.736 82.048 20.992 85.8453 20.992 89.344C20.992 93.8666 20.1387 97.1946 18.432 99.328C16.8107 101.461 14.5493 102.528 11.648 102.528C9.6 102.528 7.89334 101.973 6.528 100.864C5.16267 99.84 4.096 98.2613 3.328 96.128C2.38934 93.2266 1.57867 88.832 0.896003 82.944C0.298669 77.056 1.90735e-06 69.9733 1.90735e-06 61.6959C1.90735e-06 49.4933 0.682669 39.8079 2.048 32.6399C3.41334 25.3866 5.16267 20.2666 7.296 17.2799C9.088 14.8906 11.7333 13.0133 15.232 11.6479C18.7307 10.1973 22.6987 9.17328 27.136 8.57595C31.5733 7.89328 36.0107 7.55195 40.448 7.55195ZM88.617 92.288C83.6677 92.288 79.657 91.4346 76.585 89.728C73.513 88.0213 71.2517 85.1626 69.801 81.152C68.3503 77.056 67.625 71.5093 67.625 64.5119C67.625 59.9039 67.8383 54.7839 68.265 49.1519C68.6917 43.5199 69.2463 38.0159 69.929 32.6399C70.6117 27.1786 71.2943 22.4853 71.977 18.5599C72.9157 12.8426 74.2383 8.74662 75.945 6.27195C77.6517 3.79728 79.8703 2.55994 82.601 2.55994C84.393 2.55994 85.801 3.32794 86.825 4.86395C87.9343 6.39995 88.7023 8.49061 89.129 11.1359C89.5557 13.6959 89.769 16.5546 89.769 19.7119C89.769 30.1226 89.0437 40.6613 87.593 51.3279C86.2277 61.9946 84.3077 71.8079 81.833 80.768L80.169 79.7439C83.9237 76.8426 87.8917 74.368 92.073 72.32C96.3397 70.2719 100.478 68.6933 104.489 67.584C108.585 66.3893 112.169 65.792 115.241 65.792C118.398 65.792 120.702 66.432 122.153 67.712C123.689 68.992 124.457 70.8266 124.457 73.216C124.457 76.2879 123.22 79.0186 120.745 81.4079C118.356 83.7973 115.284 85.8026 111.529 87.424C107.774 89.0453 103.849 90.2826 99.753 91.136C95.657 91.904 91.945 92.288 88.617 92.288ZM160.735 -5.34058e-05C163.722 -5.34058e-05 167.007 0.170614 170.591 0.511948C174.175 0.767949 177.588 1.36528 180.831 2.30395C184.074 3.24261 186.719 4.60795 188.767 6.39995C190.9 8.10661 191.967 10.4533 191.967 13.4399C191.967 16.5973 190.474 18.8159 187.487 20.0959C184.586 21.3759 180.148 22.0159 174.175 22.0159C172.212 22.0159 170.079 21.9306 167.775 21.7599C165.556 21.5893 163.295 21.3333 160.991 20.992L163.935 17.2799C164.703 21.6319 165.386 26.4533 165.983 31.7439C166.58 36.9493 167.092 42.2399 167.519 47.6159C168.031 52.9919 168.372 58.0693 168.543 62.8479C168.799 67.6266 168.927 71.6799 168.927 75.0079C168.927 82.5173 168.116 88.1493 166.495 91.904C164.959 95.6586 162.314 97.536 158.559 97.536C154.634 97.536 151.818 95.616 150.111 91.776C148.404 87.936 147.551 82.0053 147.551 73.9839C147.551 70.1439 147.722 65.7493 148.063 60.7999C148.49 55.7653 149.044 50.6453 149.727 45.4399C150.41 40.2346 151.135 35.1999 151.903 30.3359C152.756 25.4719 153.61 21.2479 154.463 17.6639L158.047 20.992C156.084 21.3333 153.567 21.6746 150.495 22.0159C147.423 22.3573 144.607 22.5279 142.047 22.5279C135.562 22.5279 130.868 22.0586 127.967 21.1199C125.151 20.1813 123.743 18.2613 123.743 15.3599C123.743 12.2879 124.895 9.77061 127.199 7.80795C129.588 5.84528 132.618 4.30928 136.287 3.19994C140.042 2.00528 144.052 1.19461 148.319 0.767944C152.671 0.255946 156.81 -5.34058e-05 160.735 -5.34058e-05ZM210.127 100.096C207.311 100.096 205.135 99.2426 203.599 97.536C202.063 95.744 200.954 92.8853 200.271 88.96C199.674 84.9493 199.375 79.616 199.375 72.9599C199.375 60.0746 200.1 49.0239 201.551 39.8079C203.002 30.5066 205.476 23.2959 208.975 18.1759C212.388 13.2266 216.698 9.72795 221.903 7.67995C227.194 5.63195 232.911 4.60795 239.055 4.60795C249.466 4.60795 257.146 7.03995 262.095 11.9039C267.044 16.7679 269.519 23.1253 269.519 30.9759C269.519 37.9733 267.684 43.6906 264.015 48.1279C260.346 52.5653 255.396 55.68 249.167 57.472C243.023 59.1786 236.154 59.6053 228.559 58.7519V59.264C242.895 65.408 253.178 71.2106 259.407 76.6719C265.722 82.048 268.879 86.6986 268.879 90.624C268.879 93.0133 268.068 94.9333 266.447 96.384C264.911 97.8346 262.735 98.56 259.919 98.56C256.506 98.56 252.666 97.408 248.399 95.104C244.132 92.8 239.396 88.96 234.191 83.584C229.071 78.208 223.396 70.9546 217.167 61.8239H216.655C217.082 63.7013 217.423 66.0479 217.679 68.8639C218.02 71.5946 218.276 74.4106 218.447 77.312C218.703 80.2133 218.831 82.944 218.831 85.504C218.831 90.1973 218.148 93.824 216.783 96.384C215.503 98.8586 213.284 100.096 210.127 100.096ZM232.399 47.104C236.068 47.104 239.396 46.5066 242.383 45.3119C245.37 44.0319 247.759 42.2826 249.551 40.0639C251.343 37.7599 252.239 35.0719 252.239 31.9999C252.239 27.9893 250.874 24.7893 248.143 22.3999C245.412 20.0106 241.316 18.8159 235.855 18.8159C232.186 18.8159 229.071 19.6266 226.511 21.2479C223.951 22.7839 221.988 24.8319 220.623 27.3919C219.343 29.9519 218.703 32.7253 218.703 35.7119C218.703 39.0399 219.812 41.7706 222.031 43.9039C224.25 46.0373 227.706 47.104 232.399 47.104Z" fill="#141154"/>
</svg>
